<?xml version="1.0" encoding="iso-8859-1"?>
<!-- Generator: Adobe Illustrator 19.0.0, SVG Export Plug-In . SVG Version: 6.00 Build 0)  -->
<svg version="1.1" id="Layer_1" xmlns="http://www.w3.org/2000/svg" xmlns:xlink="http://www.w3.org/1999/xlink" x="0px" y="0px"
	 viewBox="0 0 512 512" style="enable-background:new 0 0 512 512;" xml:space="preserve">
<g>
	<g>
		<path d="M407.273,128H104.727c-19.782,0-34.909,15.127-34.909,34.909v104.727c0,6.982,4.655,11.636,11.636,11.636
			s11.636-4.655,11.636-11.636V162.909c0-6.982,4.655-11.636,11.636-11.636h302.545c6.982,0,11.636,4.655,11.636,11.636v104.727
			c0,6.982,4.655,11.636,11.636,11.636s11.636-4.655,11.636-11.636V162.909C442.182,143.127,427.055,128,407.273,128z"/>
	</g>
</g>
<g>
	<g>
		<path d="M394.473,180.364c-4.655-5.818-11.636-6.982-16.291-3.491l-103.564,65.164c-11.636,6.982-25.6,6.982-37.236,0
			l-103.564-65.164c-5.818-3.491-12.8-2.327-16.291,3.491s-2.327,12.8,3.491,16.291l103.564,65.164
			c9.309,5.818,20.945,9.309,31.418,9.309c10.473,0,22.109-3.491,31.418-9.309l103.564-65.164
			C396.8,193.164,397.964,186.182,394.473,180.364z"/>
	</g>
</g>
<g>
	<g>
		<path d="M395.636,93.091H116.364c-6.982,0-11.636,4.655-11.636,11.636s4.655,11.636,11.636,11.636h279.273
			c6.982,0,11.636-4.655,11.636-11.636S402.618,93.091,395.636,93.091z"/>
	</g>
</g>
<g>
	<g>
		<path d="M372.364,58.182H139.636c-6.982,0-11.636,4.655-11.636,11.636s4.655,11.636,11.636,11.636h232.727
			c6.982,0,11.636-4.655,11.636-11.636S379.345,58.182,372.364,58.182z"/>
	</g>
</g>
<g>
	<g>
		<path d="M500.364,349.091c-6.982,0-11.636,4.655-11.636,11.636v58.182c0,6.982-4.655,11.636-11.636,11.636H34.909
			c-6.982,0-11.636-4.655-11.636-11.636V128c0-6.982,4.655-11.636,11.636-11.636h34.909c6.982,0,11.636-4.655,11.636-11.636
			S76.8,93.091,69.818,93.091H34.909C15.127,93.091,0,108.218,0,128v290.909c0,19.782,15.127,34.909,34.909,34.909h442.182
			c19.782,0,34.909-15.127,34.909-34.909v-58.182C512,353.745,507.345,349.091,500.364,349.091z"/>
	</g>
</g>
<g>
	<g>
		<path d="M477.091,93.091h-34.909c-6.982,0-11.636,4.655-11.636,11.636s4.655,11.636,11.636,11.636h34.909
			c6.982,0,11.636,4.655,11.636,11.636v174.545H363.055c-12.8,0-25.6,6.982-31.418,19.782l-10.473,20.945
			c-2.327,3.491-5.818,6.982-10.473,6.982H200.145c-4.655,0-8.145-2.327-10.473-6.982L179.2,322.327
			c-5.818-11.636-17.455-19.782-31.418-19.782h-89.6c-6.982,0-11.636,4.655-11.636,11.636s4.655,11.636,11.636,11.636h90.764
			c4.655,0,8.146,2.327,10.473,6.982l10.473,20.945c5.818,11.636,17.455,19.782,31.418,19.782h110.545
			c12.8,0,25.6-6.982,31.418-19.782l10.473-20.945c2.327-3.491,5.818-6.982,10.473-6.982h136.145
			c6.982,0,11.636-4.655,11.636-11.636V128C512,108.218,496.873,93.091,477.091,93.091z"/>
	</g>
</g>
<g>
</g>
<g>
</g>
<g>
</g>
<g>
</g>
<g>
</g>
<g>
</g>
<g>
</g>
<g>
</g>
<g>
</g>
<g>
</g>
<g>
</g>
<g>
</g>
<g>
</g>
<g>
</g>
<g>
</g>
</svg>
